<?xml version="1.0" encoding="UTF-8" standalone="no"?>
<svg width="872px" height="505px" viewBox="0 0 872 505" version="1.1" xmlns="http://www.w3.org/2000/svg" xmlns:xlink="http://www.w3.org/1999/xlink">
    <!-- Generator: Sketch 40.1 (33804) - http://www.bohemiancoding.com/sketch -->
    <title>iPad Pro Landscape</title>
    <desc>Created with Sketch.</desc>
    <defs>
        <rect id="path-1" x="0" y="0" width="205" height="32" rx="3"></rect>
        <filter x="-50%" y="-50%" width="200%" height="200%" filterUnits="objectBoundingBox" id="filter-2">
            <feMorphology radius="1" operator="erode" in="SourceAlpha" result="shadowSpreadInner1"></feMorphology>
            <feOffset dx="0" dy="0" in="shadowSpreadInner1" result="shadowOffsetInner1"></feOffset>
            <feComposite in="shadowOffsetInner1" in2="SourceAlpha" operator="arithmetic" k2="-1" k3="1" result="shadowInnerInner1"></feComposite>
            <feColorMatrix values="0 0 0 0 0   0 0 0 0 0   0 0 0 0 0  0 0 0 0.2 0" type="matrix" in="shadowInnerInner1"></feColorMatrix>
        </filter>
        <mask id="mask-3" maskContentUnits="userSpaceOnUse" maskUnits="objectBoundingBox" x="0" y="0" width="205" height="32" fill="white">
            <use xlink:href="#path-1"></use>
        </mask>
        <rect id="path-4" x="0" y="0" width="72" height="32"></rect>
        <filter x="-50%" y="-50%" width="200%" height="200%" filterUnits="objectBoundingBox" id="filter-5">
            <feMorphology radius="1" operator="erode" in="SourceAlpha" result="shadowSpreadInner1"></feMorphology>
            <feOffset dx="0" dy="0" in="shadowSpreadInner1" result="shadowOffsetInner1"></feOffset>
            <feComposite in="shadowOffsetInner1" in2="SourceAlpha" operator="arithmetic" k2="-1" k3="1" result="shadowInnerInner1"></feComposite>
            <feColorMatrix values="0 0 0 0 0   0 0 0 0 0   0 0 0 0 0  0 0 0 0.2 0" type="matrix" in="shadowInnerInner1"></feColorMatrix>
        </filter>
        <mask id="mask-6" maskContentUnits="userSpaceOnUse" maskUnits="objectBoundingBox" x="0" y="0" width="72" height="32" fill="white">
            <use xlink:href="#path-4"></use>
        </mask>
        <polygon id="path-7" points="-5.68434189e-14 0 69 0 77 16 69 32 -5.68434189e-14 32"></polygon>
        <mask id="mask-8" maskContentUnits="userSpaceOnUse" maskUnits="objectBoundingBox" x="0" y="0" width="77" height="32" fill="white">
            <use xlink:href="#path-7"></use>
        </mask>
    </defs>
    <g id="Page-1" stroke="none" stroke-width="1" fill="none" fill-rule="evenodd">
        <g id="iPad-Pro-Portrait" transform="translate(-68.000000, -430.000000)">
            <g id="bem-static" transform="translate(68.000000, 450.000000)">
                <g id="src" transform="translate(0.000000, 153.000000)">
                    <g id="tree" transform="translate(1.000000, 32.000000)" font-size="13" font-family="PTMono-Regular, PT Mono" font-weight="normal">
                        <g id="└──lib/" transform="translate(32.000000, 165.000000)">
                            <g id="└──popup/" transform="translate(32.000000, 90.000000)" fill="#000000">
                                <text>
                                    <tspan x="0" y="12">└──popup/</tspan>
                                </text>
                            </g>
                            <g id="├──image/" transform="translate(32.000000, 75.000000)">
                                <text id="├──" fill="#000000">
                                    <tspan x="0" y="12">├──</tspan>
                                </text>
                                <text id="image/" fill="#FF6666">
                                    <tspan x="24" y="12">image/</tspan>
                                </text>
                            </g>
                            <g id="├──icon/" transform="translate(32.000000, 60.000000)" fill="#000000">
                                <text>
                                    <tspan x="0" y="12">├──icon/</tspan>
                                </text>
                            </g>
                            <g id="├──input/" transform="translate(32.000000, 45.000000)">
                                <text id="├──" fill="#000000">
                                    <tspan x="0" y="12">├──</tspan>
                                </text>
                                <text id="input/" fill="#FF6666">
                                    <tspan x="23.4" y="12">input/</tspan>
                                </text>
                            </g>
                            <g id="├──control-group/" transform="translate(32.000000, 30.000000)">
                                <text id="├──" fill="#000000">
                                    <tspan x="0" y="12">├──</tspan>
                                </text>
                                <text id="control-group/" fill="#FF6666">
                                    <tspan x="23.4" y="12">control-group/</tspan>
                                </text>
                            </g>
                            <g id="├──button/" transform="translate(32.000000, 15.000000)">
                                <text id="├──" fill="#000000">
                                    <tspan x="0" y="12">├──</tspan>
                                </text>
                                <text id="button/" fill="#FF6666">
                                    <tspan x="23.4" y="12">button/</tspan>
                                </text>
                            </g>
                            <text fill="#000000">
                                <tspan x="0" y="12">└──lib/</tspan>
                            </text>
                        </g>
                        <g id="└──logo/" transform="translate(64.000000, 120.000000)">
                            <g id="└──logo.deps.js-" transform="translate(21.000000, 30.000000)">
                                <text id="└──" fill="#000000">
                                    <tspan x="0" y="12">└──</tspan>
                                </text>
                                <text id="logo.deps.js" fill="#FF6666">
                                    <tspan x="24" y="12">logo.deps.js</tspan>
                                </text>
                            </g>
                            <g id="├──logo.bemhtml.js" transform="translate(21.000000, 15.000000)">
                                <text id="├──" fill="#000000">
                                    <tspan x="0" y="12">├──</tspan>
                                </text>
                                <text id="logo.bemhtml.js" fill="#FF6666">
                                    <tspan x="24" y="12">logo.bemhtml.js</tspan>
                                </text>
                            </g>
                            <text id="└──" fill="#000000">
                                <tspan x="0" y="12">└──</tspan>
                            </text>
                            <text id="logo/" fill="#FF6666">
                                <tspan x="23.4" y="12">logo/</tspan>
                            </text>
                        </g>
                        <g id="└──blocks/" transform="translate(32.000000, 15.000000)">
                            <g id="└──header/" transform="translate(32.000000, 15.000000)">
                                <g id="└──header.css" transform="translate(21.000000, 75.000000)">
                                    <text id="└──" fill="#000000">
                                        <tspan x="0" y="12">└──</tspan>
                                    </text>
                                    <text id="header.css" fill="#FF6666">
                                        <tspan x="24" y="12">header.css</tspan>
                                    </text>
                                </g>
                                <g id="├──__side/" transform="translate(21.000000, 60.000000)">
                                    <text id="├──" fill="#000000">
                                        <tspan x="0" y="12">├──</tspan>
                                    </text>
                                    <text id="__side/" fill="#FF6666">
                                        <tspan x="24" y="12">__side/</tspan>
                                    </text>
                                </g>
                                <g id="├──__search-input/" transform="translate(21.000000, 45.000000)">
                                    <text id="├──" fill="#000000">
                                        <tspan x="0" y="12">├──</tspan>
                                    </text>
                                    <text id="__search-input/" fill="#FF6666">
                                        <tspan x="23" y="12">__search-input/</tspan>
                                    </text>
                                </g>
                                <g id="├──__nameplate/" transform="translate(21.000000, 30.000000)">
                                    <text id="├──" fill="#000000">
                                        <tspan x="0" y="12">├──</tspan>
                                    </text>
                                    <text id="__nameplate/" fill="#FF6666">
                                        <tspan x="23" y="12">__nameplate/</tspan>
                                    </text>
                                </g>
                                <g id="├──__logo/" transform="translate(21.000000, 15.000000)">
                                    <text id="├──" fill="#000000">
                                        <tspan x="0" y="12">├──</tspan>
                                    </text>
                                    <text id="__logo/" fill="#FF6666">
                                        <tspan x="23" y="12">__logo/</tspan>
                                    </text>
                                </g>
                                <text id="└──" fill="#000000">
                                    <tspan x="0" y="12">└──</tspan>
                                </text>
                                <text id="header/" fill="#FF6666">
                                    <tspan x="23.4" y="12">header/</tspan>
                                </text>
                            </g>
                            <text fill="#000000">
                                <tspan x="0" y="12">└──blocks/</tspan>
                            </text>
                        </g>
                        <g id="project/" fill="#000000">
                            <text>
                                <tspan x="0" y="12">project/</tspan>
                            </text>
                        </g>
                    </g>
                    <g id="Source-files" font-size="14" font-family="HelveticaNeue-Bold, Helvetica Neue" fill="#333333" font-weight="bold">
                        <text>
                            <tspan x="0" y="14">Source files</tspan>
                        </text>
                    </g>
                </g>
                <g id="src_arrows" transform="translate(229.000000, 220.000000)" fill="#FF6666">
                    <path d="M0,2 L31,2 L31,3 L0,3 L0,2 L0,2 Z M36,2.5 L31,5 L31,0 L36,2.5 L36,2.5 Z" id="arrow"></path>
                    <path d="M0,92 L31,92 L31,93 L0,93 L0,92 L0,92 Z M36,92.5 L31,95 L31,90 L36,92.5 L36,92.5 Z" id="arrow-copy"></path>
                    <path d="M0,168 L31,168 L31,169 L0,169 L0,168 L0,168 Z M36,168.5 L31,171 L31,166 L36,168.5 L36,168.5 Z" id="arrow-copy"></path>
                    <path d="M0,183 L31,183 L31,184 L0,184 L0,183 L0,183 Z M36,183.5 L31,186 L31,181 L36,183.5 L36,183.5 Z" id="arrow-copy-3"></path>
                    <path d="M0,214 L31,214 L31,215 L0,215 L0,214 L0,214 Z M36,214.5 L31,217 L31,212 L36,214.5 L36,214.5 Z" id="arrow-copy-5"></path>
                    <path d="M0,153 L31,153 L31,154 L0,154 L0,153 L0,153 Z M36,153.5 L31,156 L31,151 L36,153.5 L36,153.5 Z" id="arrow-copy-6"></path>
                </g>
                <g id="Declaration-(arrow)" transform="translate(323.000000, 141.000000)" fill="#FF6666">
                    <path d="M-15.5,17.5 L15.5,17.5 L15.5,18.5 L-15.5,18.5 L-15.5,17.5 L-15.5,17.5 Z M20.5,18 L15.5,20.5 L15.5,15.5 L20.5,18 L20.5,18 Z" id="arrow" transform="translate(2.500000, 18.000000) rotate(90.000000) translate(-2.500000, -18.000000) "></path>
                </g>
                <g id="Declaration-(BEMDECL)" transform="translate(245.000000, 115.000000)" font-size="14" font-family="HelveticaNeue-Bold, Helvetica Neue" fill="#333333" font-weight="bold">
                    <text>
                        <tspan x="0.411377" y="14">Declaration (BEMDECL)</tspan>
                    </text>
                </g>
                <g id="BEMJSON-(arrow)" transform="translate(323.000000, 77.000000)" fill="#FF6666">
                    <path d="M-15.5,17.5 L15.5,17.5 L15.5,18.5 L-15.5,18.5 L-15.5,17.5 L-15.5,17.5 Z M20.5,18 L15.5,20.5 L15.5,15.5 L20.5,18 L20.5,18 Z" id="arrow" transform="translate(2.500000, 18.000000) rotate(90.000000) translate(-2.500000, -18.000000) "></path>
                </g>
                <g id="BEMJSON" transform="translate(155.000000, 0.000000)">
                    <g transform="translate(140.000000, 0.000000)" font-size="14" font-family="HelveticaNeue-Bold, Helvetica Neue" fill="#333333" font-weight="bold">
                        <text>
                            <tspan x="0.411377" y="14">BEMJSON</tspan>
                        </text>
                    </g>
                    <g id="Rectangle-22" transform="translate(0.000000, 17.000000)">
                        <g id="path-1-link" transform="translate(0.000000, 4.000000)" stroke-opacity="0.8" stroke="#000000">
                            <path d="M4,47 L2.99094783,47 C1.33909296,47 0,44.8892009 0,42.2999701 L0,4.70002992 L0,4.70002992 C0,2.10427507 1.3430418,0 2.99651262,0 L4,0" id="path-1"></path>
                        </g>
                        <path d="M4,51 L2.99094783,51 C1.33909296,51 0,48.7095584 0,45.8999675 L0,5.10003247 L0,5.10003247 C0,2.28336231 1.3430418,0 2.99651262,0 L4,0" id="path-1"></path>
                    </g>
                    <g id="Rectangle-22-Copy" transform="translate(336.000000, 21.000000)">
                        <g id="path-2-link" transform="translate(2.000000, 23.500000) scale(-1, 1) translate(-2.000000, -23.500000) " stroke-opacity="0.8" stroke="#000000">
                            <path d="M4,46.8 L2.990948,46.8 C1.339093,46.8 0,44.698183 0,42.1199702 L0,4.6800298 L0,4.6800298 C0,2.09532071 1.343042,0 2.996513,0 L4,0" id="path-2"></path>
                        </g>
                        <path d="M4,52 L2.990948,52 C1.339093,52 0,50.2484858 0,48.0999752 L0,16.9000248 L0,16.9000248 C0,14.7461006 1.343042,13 2.996513,13 L4,13" id="path-2"></path>
                    </g>
                    <g id="button,-logo,-input," transform="translate(8.000000, 22.000000)" font-size="13" font-family="PTMono-Regular, PT Mono" font-weight="normal">
                        <text id="input" fill="#FF6666">
                            <tspan x="232.671429" y="42">input</tspan>
                        </text>
                        <text id="," fill="#444444">
                            <tspan x="218.35974" y="42">,</tspan>
                        </text>
                        <text id="button" fill="#FF6666">
                            <tspan x="170.24026" y="42">button</tspan>
                        </text>
                        <text id="," fill="#333333">
                            <tspan x="155.763636" y="42">,</tspan>
                        </text>
                        <text id="control-group" fill="#FF6666">
                            <tspan x="53.4077922" y="42">control-group</tspan>
                        </text>
                        <text id="," fill="#444444">
                            <tspan x="317.35974" y="27">,</tspan>
                        </text>
                        <text id="header__side" fill="#FF6666">
                            <tspan x="223.24026" y="27">header__side</tspan>
                        </text>
                        <text id="," fill="#444444">
                            <tspan x="208.42987" y="27">,</tspan>
                        </text>
                        <text id="header__search-input" fill="#FF6666">
                            <tspan x="51.4311688" y="27">header__search-input</tspan>
                        </text>
                        <text id="," fill="#444444">
                            <tspan x="33.9376623" y="26">,</tspan>
                        </text>
                        <text id="form" fill="#FF6666">
                            <tspan x="0.518181818" y="27">form</tspan>
                        </text>
                        <text id="," fill="#444444">
                            <tspan x="307.42987" y="12">,</tspan>
                        </text>
                        <text id="header__nameplate" fill="#FF6666">
                            <tspan x="174.431169" y="12">header__nameplate</tspan>
                        </text>
                        <text id="," fill="#444444">
                            <tspan x="158.42987" y="12">,</tspan>
                        </text>
                        <text id="header__logo" fill="#FF6666">
                            <tspan x="63.4311688" y="12">header__logo</tspan>
                        </text>
                        <text id="," fill="#333333">
                            <tspan x="47.7116883" y="12">,</tspan>
                        </text>
                        <text id="header" fill="#FF6666">
                            <tspan x="0" y="12">header</tspan>
                        </text>
                    </g>
                </g>
                <g id="sborka" transform="translate(276.000000, 188.000000)">
                    <g id="Rectangle-22">
                        <g id="path-3-link" stroke="#000000" stroke-opacity="0.2" fill="#000000" fill-opacity="0.05">
                            <rect id="path-3" x="0" y="0" width="100" height="276" rx="3"></rect>
                        </g>
                        <g id="path-3-link" stroke="#FFFFFF">
                            <rect id="path-3" x="0" y="0" width="100" height="276" rx="3"></rect>
                        </g>
                    </g>
                    <g id="Build" transform="translate(32.000000, 128.000000)" font-size="14" font-family="HelveticaNeue-Bold, Helvetica Neue" fill="#333333" font-weight="bold">
                        <text>
                            <tspan x="0.4343262" y="14.541126">Build</tspan>
                        </text>
                    </g>
                </g>
                <g id="Group" transform="translate(390.000000, 194.000000)">
                    <g id="Result" transform="translate(266.000000, 137.000000)" font-size="14" font-family="HelveticaNeue-Bold, Helvetica Neue" fill="#333333" font-weight="bold">
                        <text>
                            <tspan x="0.411377" y="14">Result</tspan>
                        </text>
                    </g>
                    <g id="Declaration-(arrow)-Copy" transform="translate(285.000000, 66.000000)" fill="#FF6666">
                        <path d="M-30,32 L31,32 L31,33 L-30,33 L-30,32 L-30,32 Z M35,32.5 L30,35 L30,30 L35,32.5 L35,32.5 Z" id="arrow" transform="translate(2.500000, 32.500000) rotate(90.000000) translate(-2.500000, -32.500000) "></path>
                    </g>
                    <g id="bundle_css_arrow" transform="translate(0.000000, 64.000000)" fill="#FF6666">
                        <path d="M0,2 L31,2 L31,3 L0,3 L0,2 L0,2 Z M36,2.5 L31,5 L31,-4.4408921e-16 L36,2.5 L36,2.5 Z" id="arrow"></path>
                    </g>
                    <g id="bundle_css_arrow-copy" transform="translate(200.000000, 66.000000)" fill="#FF6666">
                        <polygon id="arrow" points="0 4.4408921e-16 87 4.4408921e-16 87 1 0 1"></polygon>
                    </g>
                    <g id="bundle_css" transform="translate(45.000000, 22.000000)" font-size="13" font-family="PTMono-Regular, PT Mono" fill="#183691" font-weight="normal">
                        <g id="@import-“lib/button/" transform="translate(2.000000, 2.000000)">
                            <text id="...">
                                <tspan x="0.4" y="84"> ...</tspan>
                            </text>
                            <text id="“bundle.html”-">
                                <tspan x="0.4" y="72">“bundle.html”</tspan>
                            </text>
                            <text id="“bundle.deps.js”">
                                <tspan x="0.4" y="57">“bundle.deps.js”</tspan>
                            </text>
                            <text id="“bundle.bemhtml.js”">
                                <tspan x="0.4" y="42">“bundle.bemhtml.js”</tspan>
                            </text>
                            <text id="“bundle.js”">
                                <tspan x="0.4" y="27">“bundle.js”</tspan>
                            </text>
                            <text id="“bundle.css”">
                                <tspan x="0.4" y="12">“bundle.css”</tspan>
                            </text>
                        </g>
                    </g>
                    <g id="Bundles" transform="translate(65.000000, 0.000000)" font-size="14" font-family="HelveticaNeue-Bold, Helvetica Neue" fill="#333333" font-weight="bold">
                        <text>
                            <tspan x="0.411377" y="14">Bundles</tspan>
                        </text>
                    </g>
                    <g id="Header-Copy-3" transform="translate(45.000000, 167.000000)">
                        <g id="Form" transform="translate(158.000000, 0.000000)">
                            <g id="Input">
                                <g id="Rectangle-12">
                                    <use fill="#FFFFFF" fill-rule="evenodd" xlink:href="#path-1"></use>
                                    <use fill="black" fill-opacity="1" filter="url(#filter-2)" xlink:href="#path-1"></use>
                                    <use stroke-opacity="0.2" stroke="#000000" mask="url(#mask-3)" stroke-width="2" xlink:href="#path-1"></use>
                                </g>
                                <text id="Track,-artist" font-family="ArialMT, Arial" font-size="15" font-weight="normal" fill-opacity="0.2" fill="#000000">
                                    <tspan x="30" y="20">Track, artist</tspan>
                                </text>
                            </g>
                            <g id="Button" transform="translate(204.000000, 0.000000)">
                                <g id="Rectangle-12">
                                    <use fill="#FFFFFF" fill-rule="evenodd" xlink:href="#path-4"></use>
                                    <use fill="black" fill-opacity="1" filter="url(#filter-5)" xlink:href="#path-4"></use>
                                    <use stroke-opacity="0.2" stroke="#000000" mask="url(#mask-6)" stroke-width="2" xlink:href="#path-4"></use>
                                </g>
                                <text id="Search" font-family="ArialMT, Arial" font-size="15" font-weight="normal" fill="#000000">
                                    <tspan x="15" y="20">Search</tspan>
                                </text>
                            </g>
                        </g>
                        <g id="Service-Label" transform="translate(105.000000, 0.000000)">
                            <use id="Rectangle-1" stroke="#FFDB47" mask="url(#mask-8)" stroke-width="4" fill="#FFFFFF" xlink:href="#path-7"></use>
                            <text id="Music" font-family=".SFNSText-Regular, .SF NS Text" font-size="17" font-weight="normal" fill="#000000">
                                <tspan x="14" y="21">Music</tspan>
                            </text>
                        </g>
                        <g id="Yandex">
                            <path d="M26.1251838,9.29583429 L23.7687427,9.29583429 C23.5791103,9.29583429 23.4644487,9.44902186 23.4644487,9.56243959 L23.4644487,16.8344304 L19.0955513,16.8344304 L19.0955513,9.56243959 C19.0955513,9.37242808 19.0191103,9.29583429 18.8294778,9.29583429 L16.4745068,9.29583429 C16.2848743,9.29583429 16.1702128,9.40925201 16.1702128,9.56243959 L16.1702128,28.0642578 C16.1702128,28.2542693 16.2466538,28.36916 16.4362863,28.36916 L18.8294778,28.36916 C18.9823598,28.36916 19.0955513,28.2542693 19.0955513,28.0642578 L19.0955513,19.2309321 L23.4644487,19.2309321 L23.4644487,28.0627848 C23.4644487,28.2527963 23.5791103,28.367687 23.7687427,28.367687 L26.1251838,28.367687 C26.3148162,28.367687 26.3912573,28.2144994 26.3912573,28.0627848 L26.3912573,9.56243959 C26.3912573,9.40925201 26.2765957,9.29583429 26.1251838,9.29583429 L26.1251838,9.29583429 Z M79.2899033,25.8548216 C79.2531528,25.7414039 79.2134623,25.7016341 79.1002708,25.7016341 C78.9106383,25.7016341 77.8845648,26.1214269 76.4027853,26.1214269 C73.5156673,26.1214269 72.1103288,23.3419563 72.1103288,18.9260299 C72.1103288,15.0418412 73.2878143,11.1974223 75.2635203,11.1974223 C75.7956673,11.1974223 76.4424758,11.3506099 77.4670793,12.3021404 C77.5817408,12.4155581 77.6567118,12.453855 77.7713733,12.453855 C77.8845648,12.453855 77.9992263,12.3787342 78.1124178,12.1872497 L79.1384913,10.5124971 C79.2134623,10.3976064 79.2516828,10.2841887 79.2516828,10.170771 C79.2516828,10.0175834 79.0988008,9.90269275 78.8709478,9.78927503 C77.3127273,8.98945915 76.2499033,8.83774453 75.3384913,8.83774453 C71.7663443,8.83774453 68.9938878,13.1034292 68.9938878,19.7641427 C68.9938878,25.5116226 71.6546228,28.8243038 75.4531528,28.8243038 C77.0495938,28.8243038 78.7592263,28.0613119 79.4427853,27.5663982 C79.5956673,27.4529804 79.6338878,27.2997929 79.5956673,27.1480783 L79.2899033,25.8548216 L79.2899033,25.8548216 Z M63.1446809,17.8993786 L67.7046809,9.56243959 C67.7811219,9.44902186 67.7429014,9.29583429 67.5914894,9.29583429 L65.3497099,9.29583429 C64.7043714,9.29583429 64.4765184,9.52414269 64.2486654,10.0190564 L60.8294004,17.1378596 C60.6397679,17.5561795 60.4486654,17.8227848 60.2590329,17.9362025 L60.2590329,9.56243959 C60.2590329,9.40925201 60.1825919,9.29583429 60.0311799,9.29583429 L57.5615474,9.29583429 C57.4483559,9.29583429 57.3336944,9.40925201 57.3336944,9.56243959 L57.3336944,28.1025547 C57.3336944,28.2159724 57.4101354,28.36916 57.5615474,28.36916 L60.0311799,28.36916 C60.1840619,28.36916 60.2590329,28.2542693 60.2590329,28.1025547 L60.2590329,18.5474799 C60.3722244,18.6240736 60.4486654,18.7374914 60.5251064,18.889206 L64.8557834,27.7976525 C65.0836364,28.2542693 65.4261509,28.36916 65.9200774,28.36916 L68.3514894,28.36916 C68.5043714,28.36916 68.5411219,28.2159724 68.4646809,28.1025547 L63.1446809,17.8993786 L63.1446809,17.8993786 Z M40.8577176,25.9697123 L40.4020116,25.9697123 C39.8316441,25.9697123 39.6802321,25.7414039 39.6802321,25.2833142 L39.6802321,9.56243959 C39.6802321,9.37242808 39.6037911,9.29583429 39.4523791,9.29583429 L31.8538491,9.29583429 C31.6642166,9.29583429 31.5495551,9.40925201 31.5495551,9.56243959 L31.5495551,10.9337629 C31.5495551,15.5397008 31.2834816,21.4786651 28.8520696,25.9711853 L28.0170986,25.9711853 C27.7892456,25.9711853 27.7128046,26.084603 27.7128046,26.2746145 L27.7128046,31.8320829 C27.7128046,32.0235673 27.8656867,32.0986881 27.9788781,32.0986881 L29.8017021,32.0986881 C30.2206576,32.0986881 30.3720696,31.7952589 30.3720696,31.5286536 L30.3720696,28.367687 L38.5027466,28.367687 L38.5027466,31.8320829 C38.5027466,31.9852704 38.6159381,32.0986881 38.7688201,32.0986881 L40.7063056,32.0986881 C40.9341586,32.0986881 41.1634816,31.9086766 41.1634816,31.5286536 L41.1634816,26.2746145 C41.1620116,26.08313 41.0473501,25.9697123 40.8577176,25.9697123 L40.8577176,25.9697123 Z M36.7548936,25.9697123 L31.2452611,25.9697123 C33.1827466,22.6570311 33.9427466,18.9275029 34.2088201,14.358389 C34.2852611,13.3685616 34.3234816,12.3404373 34.3234816,11.692336 L36.7548936,11.692336 L36.7548936,25.9697123 L36.7548936,25.9697123 Z M48.9134236,8.83774453 C44.8105996,8.83774453 42.9877756,14.0166628 42.9877756,19.649252 C42.9877756,25.3982048 45.5705996,28.8243038 49.3705996,28.8243038 C51.2331141,28.8243038 52.8663056,28.1010817 53.7012766,27.5663982 C53.8541586,27.4898044 53.8909091,27.3763867 53.8541586,27.224672 L53.5498646,25.9299425 C53.5116441,25.7767549 53.4366731,25.7016341 53.2455706,25.7016341 C53.0926886,25.7016341 51.9916441,26.1214269 50.4348936,26.1214269 C47.5095551,26.1214269 46.1409671,23.5702647 46.1409671,20.2192865 L46.1409671,19.3193096 C46.1409671,19.3193096 47.6242166,19.4975374 48.4974081,19.4975374 L54.0437911,19.4975374 L54.0437911,17.8979056 C54.0437911,11.9987112 51.9534236,8.83774453 48.9134236,8.83774453 L48.9134236,8.83774453 Z M48.4959381,17.0995627 C47.6227466,17.0995627 46.2556286,17.2527503 46.2556286,17.2527503 C46.2556286,17.2527503 46.2556286,16.6812428 46.3320696,16.0729114 C46.6731141,12.8368239 47.4713346,11.1988953 48.8017021,11.1988953 C50.0174081,11.1988953 50.7774081,12.8751208 50.9670406,15.8063061 C51.0052611,16.4146375 51.0052611,17.0995627 51.0052611,17.0995627 L48.4959381,17.0995627 L48.4959381,17.0995627 Z" id="Shape" fill="#000000"></path>
                            <path d="M13.2208196,3.55271368e-15 L8.88867263,3.55271368e-15 C4.63296664,3.55271368e-15 1.02406915,3.2346145 1.02406915,9.51677791 C1.02406915,13.2860759 2.77192215,16.0640736 5.88689314,17.435397 L0.0759066751,27.9420023 C-0.11372582,28.2837284 0.0759066751,28.5503337 0.380200679,28.5503337 L3.07768617,28.5503337 C3.30553917,28.5503337 3.45695116,28.4737399 3.53339217,28.2837284 L8.81370165,17.9671346 L10.7129666,17.9671346 L10.7129666,28.2837284 C10.7129666,28.3971461 10.8276281,28.5503337 10.9790401,28.5503337 L13.3354811,28.5503337 C13.5633341,28.5503337 13.6397751,28.436916 13.6397751,28.2469045 L13.6397751,0.380023015 C13.6383051,0.113417722 13.4868931,3.55271368e-15 13.2208196,3.55271368e-15 L13.2208196,3.55271368e-15 Z M10.7129666,15.5308631 L9.11799565,15.5308631 C6.61014265,15.5308631 4.17873066,13.7043959 4.17873066,9.13528193 C4.17873066,4.37762946 6.45873066,2.43479862 8.77548114,2.43479862 L10.7129666,2.43479862 L10.7129666,15.5308631 L10.7129666,15.5308631 Z" id="Shape" fill="#FF2500"></path>
                        </g>
                    </g>
                </g>
            </g>
        </g>
    </g>
</svg>