<?xml version="1.0" encoding="UTF-8" standalone="no"?>
<!DOCTYPE svg PUBLIC "-//W3C//DTD SVG 1.1//EN" "http://www.w3.org/Graphics/SVG/1.1/DTD/svg11.dtd">
<!-- Generated by Microsoft Visio, SVG Export build__declaration.svg new-page -->
<svg xmlns="http://www.w3.org/2000/svg" xmlns:xlink="http://www.w3.org/1999/xlink" xmlns:ev="http://www.w3.org/2001/xml-events"
		width="11.4889in" height="6.90745in" viewBox="0 0 827.204 497.336" xml:space="preserve" color-interpolation-filters="sRGB"
		class="st19">
	<style type="text/css">
	<![CDATA[
		.st1 {fill:#ffcc00;stroke:none;stroke-linecap:round;stroke-linejoin:round;stroke-width:0.72}
		.st2 {fill:none;marker-end:url(#mrkr13-6);stroke:none;stroke-linecap:butt;stroke-width:1.5}
		.st3 {fill:#ffcc00;fill-opacity:1;stroke:#ffcc00;stroke-opacity:1;stroke-width:0.37313432835821}
		.st4 {fill:#000000;font-family:Yandex Sans Text Light;font-size:1.33333em;font-weight:bold}
		.st5 {stroke:#000000;stroke-linecap:butt;stroke-width:1.5}
		.st6 {fill:#000000;font-family:Yandex Sans Text Light;font-size:1.33333em}
		.st7 {fill:#ff6666;font-family:Yandex Sans Text Light;font-size:1.33333em}
		.st8 {marker-end:url(#mrkr3-127);stroke:#000000;stroke-linecap:butt;stroke-width:1.5}
		.st9 {fill:#000000;fill-opacity:1;stroke:#000000;stroke-opacity:1;stroke-width:0.45454545454545}
		.st10 {fill:#00b050;font-family:Yandex Sans Text Light;font-size:1.33333em}
		.st11 {fill:#000000;font-size:1em}
		.st12 {fill:#ff6666;font-size:1em}
		.st13 {font-size:1em}
		.st14 {fill:#f6f5f3;stroke:#000000;stroke-linecap:butt;stroke-opacity:0.098;stroke-width:0.75}
		.st15 {fill:#660033;font-family:Yandex Sans Text Light;font-size:1.33333em}
		.st16 {fill:#002060;font-size:1em}
		.st17 {fill:#000000;fill-opacity:0.047;stroke:#000000;stroke-linecap:butt;stroke-opacity:0.2;stroke-width:0.75}
		.st18 {fill:none;stroke:#ffffff;stroke-linecap:butt;stroke-width:0.75}
		.st19 {fill:none;fill-rule:evenodd;font-size:12px;overflow:visible;stroke-linecap:square;stroke-miterlimit:3}
	]]>
	</style>

	<defs id="Patterns_And_Gradients">
		<linearGradient id="grad0-11" x1="0" y1="0" x2="1" y2="0" gradientTransform="rotate(270 0.5 0.5)">
			<stop offset="0" stop-color="#f2f2f2" stop-opacity="1"/>
			<stop offset="1" stop-color="#ffffff" stop-opacity="1"/>
		</linearGradient>
		<linearGradient id="grad0-124" x1="0" y1="0" x2="1" y2="0" gradientTransform="rotate(270 0.5 0.5)">
			<stop offset="0" stop-color="#1e1e1e" stop-opacity="1"/>
			<stop offset="1" stop-color="#000000" stop-opacity="1"/>
		</linearGradient>
	</defs>
	<defs id="Markers">
		<g id="lend13">
			<path d="M 3 1 L 0 0 L 3 -1 L 3 1 " style="stroke:none"/>
		</g>
		<marker id="mrkr13-6" class="st3" refX="-8.04" orient="auto" markerUnits="strokeWidth" overflow="visible">
			<use xlink:href="#lend13" transform="scale(-2.68,-2.68) "/>
		</marker>
		<g id="lend3">
			<path d="M 2 1 L 0 0 L 2 -1 " style="stroke-linecap:round;stroke-linejoin:round;fill:none"/>
		</g>
		<marker id="mrkr3-127" class="st9" orient="auto" markerUnits="strokeWidth" overflow="visible">
			<use xlink:href="#lend3" transform="scale(-2.2,-2.2) "/>
		</marker>
	</defs>
	<g>
		<title>scheme1</title>
		<g id="shape1-1" transform="translate(154.783,-295.128)">
			<title>Горизонтальная линия выноски.540</title>
			<path d="M0 497.34 L134.31 497.34 L0 497.34 Z" class="st1"/>
		</g>
		<g id="shape4-3" transform="translate(30.7124,-266.781)">
			<title>Text (14).543</title>
			<desc>Source files</desc>
			<rect x="0" y="468.99" width="133.228" height="28.3465" class="st2"/>
			<text x="25.49" y="487.96" class="st4">Source files</text>		</g>
		<g id="shape5-8" transform="translate(630.805,287.248) rotate(90)">
			<title>Line.544</title>
			<path d="M0 497.34 L78.8 497.34" class="st5"/>
		</g>
		<g id="shape6-13" transform="translate(104.555,-204.419)">
			<title>Text (14).543.6</title>
			<desc>blocks/</desc>
			<rect x="0" y="468.99" width="85.0394" height="28.3465" class="st2"/>
			<text x="16.42" y="487.96" class="st6">blocks/</text>		</g>
		<g id="shape7-17" transform="translate(133.468,-198.75)">
			<title>Line.544.7</title>
			<path d="M0 497.34 L14.17 497.34" class="st5"/>
		</g>
		<g id="shape8-21" transform="translate(137.437,-194.498)">
			<title>Text (14).543.8</title>
			<desc>button/</desc>
			<rect x="0" y="488.832" width="85.0394" height="8.50394" class="st2"/>
			<text x="15.01" y="497.88" class="st7">button/</text>		</g>
		<g id="shape9-25" transform="translate(131.767,-177.49)">
			<title>Text (14).543.9</title>
			<desc>input/</desc>
			<rect x="0" y="488.832" width="85.0394" height="8.50394" class="st2"/>
			<text x="20.73" y="497.88" class="st7">input/</text>		</g>
		<g id="shape10-29" transform="translate(128.933,-159.065)">
			<title>Text (14).543.10</title>
			<desc>logo/</desc>
			<rect x="0" y="485.998" width="85.0394" height="11.3386" class="st2"/>
			<text x="23.58" y="496.47" class="st7">logo/</text>		</g>
		<g id="shape11-33" transform="translate(133.468,-181.742)">
			<title>Line.11</title>
			<path d="M0 497.34 L14.17 497.34" class="st5"/>
		</g>
		<g id="shape12-37" transform="translate(133.468,-164.734)">
			<title>Line.12</title>
			<path d="M0 497.34 L14.17 497.34" class="st5"/>
		</g>
		<g id="shape13-41" transform="translate(127.799,-142.624)">
			<title>Text (14).543.13</title>
			<desc>icon/</desc>
			<rect x="0" y="485.998" width="85.0394" height="11.3386" class="st2"/>
			<text x="24.44" y="496.47" class="st6">icon/</text>		</g>
		<g id="shape14-45" transform="translate(124.964,-125.049)">
			<title>Text (14).543.14</title>
			<desc>link/</desc>
			<rect x="0" y="485.998" width="85.0394" height="11.3386" class="st2"/>
			<text x="27.31" y="496.47" class="st6">link/</text>		</g>
		<g id="shape15-49" transform="translate(133.468,-147.726)">
			<title>Line.15</title>
			<path d="M0 497.34 L14.17 497.34" class="st5"/>
		</g>
		<g id="shape16-53" transform="translate(133.468,-131.285)">
			<title>Line.16</title>
			<path d="M0 497.34 L14.17 497.34" class="st5"/>
		</g>
		<g id="shape17-57" transform="translate(42.0509,-232.766)">
			<title>Text (14).17</title>
			<desc>project/</desc>
			<rect x="0" y="468.99" width="85.0394" height="28.3465" class="st2"/>
			<text x="14.14" y="487.96" class="st6">project/</text>		</g>
		<g id="shape18-61" transform="translate(99.4525,-218.593)">
			<title>Line.544.18</title>
			<path d="M0 497.34 L19.84 497.34" class="st5"/>
		</g>
		<g id="shape19-65" transform="translate(596.789,267.405) rotate(90)">
			<title>Line.544.19</title>
			<path d="M0 497.34 L11.34 497.34" class="st5"/>
		</g>
		<g id="shape20-69" transform="translate(99.3108,-110.876)">
			<title>Line.20</title>
			<path d="M0 497.34 L19.84 497.34" class="st5"/>
		</g>
		<g id="shape21-73" transform="translate(596.647,375.689) rotate(90)">
			<title>Line.21</title>
			<path d="M0 497.34 L11.34 497.34" class="st5"/>
		</g>
		<g id="shape22-77" transform="translate(90.2399,-102.939)">
			<title>Text (14).22</title>
			<desc>lib/</desc>
			<rect x="0" y="485.998" width="85.0394" height="11.3386" class="st2"/>
			<text x="31.05" y="496.47" class="st6">lib/</text>		</g>
		<g id="shape24-81" transform="translate(145.799,-64.813)">
			<title>Text (14).24</title>
			<desc>input/</desc>
			<rect x="0" y="484.58" width="56.6929" height="12.7559" class="st2"/>
			<text x="6.55" y="495.76" class="st7">input/</text>		</g>
		<g id="shape25-85" transform="translate(122.13,-66.939)">
			<title>Text (14).25</title>
			<rect x="0" y="468.99" width="85.0394" height="28.3465" class="st2"/>
		</g>
		<g id="shape26-88" transform="translate(133.468,-88.1988)">
			<title>Line.26</title>
			<path d="M0 497.34 L14.17 497.34" class="st5"/>
		</g>
		<g id="shape27-92" transform="translate(133.468,-71.1909)">
			<title>Line.27</title>
			<path d="M0 497.34 L14.17 497.34" class="st5"/>
		</g>
		<g id="shape28-96" transform="translate(144.382,-47.6634)">
			<title>Text (14).28</title>
			<desc>icon/</desc>
			<rect x="0" y="484.58" width="51.874" height="12.7559" class="st2"/>
			<text x="7.86" y="495.76" class="st6">icon/</text>		</g>
		<g id="shape31-100" transform="translate(133.468,-54.1831)">
			<title>Line.31</title>
			<path d="M0 497.34 L14.17 497.34" class="st5"/>
		</g>
		<g id="shape32-104" transform="translate(137.437,-82.2461)">
			<title>Text (14).32</title>
			<desc>button/</desc>
			<rect x="0" y="485.714" width="85.0394" height="11.622" class="st2"/>
			<text x="15.01" y="496.33" class="st7">button/</text>		</g>
		<g id="shape33-108" transform="translate(630.805,397.799) rotate(90)">
			<title>Line.33</title>
			<path d="M0 497.34 L62.36 497.34" class="st5"/>
		</g>
		<g id="shape34-112" transform="translate(140.838,-31.5059)">
			<title>Text (14).543.34</title>
			<desc>image/</desc>
			<rect x="0" y="485.714" width="73.7008" height="11.622" class="st2"/>
			<text x="11.48" y="496.33" class="st6">image/</text>		</g>
		<g id="shape36-116" transform="translate(133.468,-37.1752)">
			<title>Line.36</title>
			<path d="M0 497.34 L14.17 497.34" class="st5"/>
		</g>
		<g id="shape37-120" transform="translate(223.893,-198.75)">
			<title>Basic Arrow 1.545</title>
			<path d="M0 497.34 L51.02 497.34" class="st8"/>
		</g>
		<g id="shape38-128" transform="translate(223.893,-181.742)">
			<title>Basic Arrow 1.38</title>
			<path d="M0 497.34 L51.02 497.34" class="st8"/>
		</g>
		<g id="shape39-134" transform="translate(223.893,-164.734)">
			<title>Basic Arrow 1.39</title>
			<path d="M0 497.34 L51.02 497.34" class="st8"/>
		</g>
		<g id="shape40-140" transform="translate(223.893,-88.1988)">
			<title>Basic Arrow 1.40</title>
			<path d="M0 497.34 L51.02 497.34" class="st8"/>
		</g>
		<g id="shape41-146" transform="translate(223.893,-71.1909)">
			<title>Basic Arrow 1.41</title>
			<path d="M0 497.34 L51.02 497.34" class="st8"/>
		</g>
		<g id="shape44-152" transform="translate(279.169,-438.278)">
			<title>Text Bold (14).546</title>
			<desc>Declaration</desc>
			<rect x="0" y="468.99" width="96.378" height="28.3465" class="st2"/>
			<text x="7.17" y="487.96" class="st4">Declaration</text>		</g>
		<g id="shape95-156" transform="translate(236.649,-395.758)">
			<title>Text (14).543.95</title>
			<desc>exports.blocks = [</desc>
			<rect x="0" y="468.99" width="138.898" height="28.3465" class="st2"/>
			<text x="7.18" y="487.96" class="st10">exports.blocks<tspan class="st11"> </tspan><tspan class="st11">= [</tspan></text>		</g>
		<g id="shape96-162" transform="translate(264.996,-344.734)">
			<title>Text (14).543.96</title>
			<desc>{ “name”: “button” }, { “name”: “logo” }, { “name”: “input” }</desc>
			<rect x="0" y="452.355" width="152.429" height="44.9814" class="st2"/>
			<text x="4" y="460.45" class="st6">{ <tspan class="st12">“name”</tspan>: <tspan class="st12">“button”</tspan> }, <tspan
						x="4" dy="1.2em" class="st13">{ </tspan><tspan class="st12">“name”</tspan>: <tspan class="st12">“logo”</tspan> }, <tspan
						x="4" dy="1.2em" class="st13">{ </tspan><tspan class="st12">“name”</tspan>: <tspan class="st12">“input”</tspan> }</text>		</g>
		<g id="shape113-174" transform="translate(239.484,-316.388)">
			<title>Text (14).543.113</title>
			<desc>];</desc>
			<rect x="0" y="468.99" width="19.8425" height="28.3465" class="st2"/>
			<text x="5.31" y="487.96" class="st6">];</text>		</g>
		<g id="shape122-178" transform="translate(826.112,202.208) rotate(90)">
			<title>Basic Arrow 1.122</title>
			<path d="M0 497.34 L42.52 497.34" class="st8"/>
		</g>
		<g id="shape125-184" transform="translate(388.303,-117.963)">
			<title>Basic Arrow 1.125</title>
			<path d="M0 497.34 L51.02 497.34" class="st8"/>
		</g>
		<g id="shape126-190" transform="translate(548.46,-266.781)">
			<title>Text (14).126</title>
			<desc>project.css</desc>
			<rect x="0" y="468.99" width="133.228" height="28.3465" class="st2"/>
			<text x="27.51" y="487.96" class="st4">project.css</text>		</g>
		<g id="shape128-194" transform="translate(456.334,-25.8366)">
			<title>Rectangle-25</title>
			<rect x="0" y="298.911" width="304.724" height="198.425" class="st14"/>
		</g>
		<g id="shape129-196" transform="translate(470.508,-110.876)">
			<title>Text (14).129</title>
			<desc>@import “lib/button/button.css”; @import “blocks/button/butto...</desc>
			<rect x="0" y="468.99" width="325.984" height="28.3465" class="st2"/>
			<text x="4" y="430.36" class="st15">@import<tspan class="st11">  </tspan><tspan class="st16">“lib</tspan><tspan
						class="st16">/</tspan><tspan class="st16">button</tspan><tspan class="st16">/</tspan><tspan class="st16">button</tspan><tspan
						class="st16">.</tspan><tspan class="st16">css”</tspan><tspan class="st11">; </tspan><tspan x="4" dy="1.2em"
						class="st13">@</tspan>import<tspan class="st11">  </tspan><tspan class="st16">“blocks</tspan><tspan
						class="st16">/</tspan><tspan class="st16">button</tspan><tspan class="st16">/</tspan><tspan class="st16">button</tspan><tspan
						class="st16">.</tspan><tspan class="st16">css”</tspan><tspan class="st11">;  </tspan><tspan x="4"
						dy="2.4em" class="st13">@</tspan>import<tspan class="st11">  </tspan><tspan class="st16">“lib</tspan><tspan
						class="st16">/</tspan><tspan class="st16">input</tspan><tspan class="st16">/</tspan><tspan class="st16">input</tspan><tspan
						class="st16">.</tspan><tspan class="st16">css”</tspan><tspan class="st11">; </tspan><tspan x="4" dy="1.2em"
						class="st13">@</tspan>import<tspan class="st11">  </tspan><tspan class="st16">“blocks</tspan><tspan
						class="st16">/</tspan><tspan class="st16">input</tspan><tspan class="st16">/</tspan><tspan class="st16">input</tspan><tspan
						class="st16">.</tspan><tspan class="st16">css”</tspan><tspan class="st11">;  </tspan><tspan x="4"
						dy="2.4em" class="st13">@</tspan>import<tspan class="st11">  </tspan><tspan class="st16">“blocks</tspan><tspan
						class="st16">/</tspan><tspan class="st16">logo</tspan><tspan class="st16">/</tspan><tspan class="st16">logo</tspan><tspan
						class="st16">.</tspan><tspan class="st16">css”</tspan><tspan class="st11">;</tspan></text>		</g>
		<g id="group130-249" transform="translate(286.256,-18.75)">
			<title>Rectangle-22</title>
			<g id="shape131-250">
				<title>path-3</title>
				<path d="M0 494.47 A2.55124 2.86552 -180 0 0 2.55 497.34 L82.49 497.34 A2.55124 2.86552 -180 0 0 85.04 494.47 L85.04
							 280.52 A2.55124 2.86552 -180 0 0 82.49 277.65 L2.55 277.65 A2.55124 2.86552 -180 0 0 0 280.52 L0 494.47
							 Z" class="st17"/>
			</g>
			<g id="shape132-252">
				<title>Sheet.132</title>
				<path d="M0 494.47 A2.55124 2.86552 -180 0 0 2.55 497.34 L82.49 497.34 A2.55124 2.86552 -180 0 0 85.04 494.47 L85.04
							 280.52 A2.55124 2.86552 -180 0 0 82.49 277.65 L2.55 277.65 A2.55124 2.86552 -180 0 0 0 280.52 L0 494.47
							 Z" class="st18"/>
			</g>
		</g>
		<g id="shape133-254" transform="translate(286.256,-103.789)">
			<title>Text Bold (14).546.133</title>
			<desc>Build</desc>
			<rect x="0" y="468.99" width="85.0394" height="28.3465" class="st2"/>
			<text x="24.58" y="487.96" class="st4">Build</text>		</g>
	</g>
</svg>
