<?xml version="1.0" encoding="UTF-8" standalone="no"?>
<!DOCTYPE svg PUBLIC "-//W3C//DTD SVG 1.1//EN" "http://www.w3.org/Graphics/SVG/1.1/DTD/svg11.dtd">
<!-- Generated by Microsoft Visio, SVG Export build__declaration.svg new-page -->
<svg xmlns="http://www.w3.org/2000/svg" xmlns:xlink="http://www.w3.org/1999/xlink" xmlns:ev="http://www.w3.org/2001/xml-events"
		width="11.811in" height="7.28346in" viewBox="0 0 850.394 524.409" xml:space="preserve" color-interpolation-filters="sRGB"
		class="st19">
	<style type="text/css">
	<![CDATA[
		.st1 {fill:#ffcc00;stroke:none;stroke-linecap:round;stroke-linejoin:round;stroke-width:0.72}
		.st2 {fill:none;marker-end:url(#mrkr13-6);stroke:none;stroke-linecap:butt;stroke-width:1.5}
		.st3 {fill:#ffcc00;fill-opacity:1;stroke:#ffcc00;stroke-opacity:1;stroke-width:0.37313432835821}
		.st4 {fill:#000000;font-family:Yandex Sans Text Light;font-size:1.33333em;font-weight:bold}
		.st5 {stroke:#000000;stroke-linecap:butt;stroke-width:1.5}
		.st6 {fill:#000000;font-family:Yandex Sans Text Light;font-size:1.33333em}
		.st7 {fill:#ff6666;font-family:Yandex Sans Text Light;font-size:1.33333em}
		.st8 {marker-end:url(#mrkr3-143);stroke:#000000;stroke-linecap:butt;stroke-width:1.5}
		.st9 {fill:#000000;fill-opacity:1;stroke:#000000;stroke-opacity:1;stroke-width:0.45454545454545}
		.st10 {fill:#00b050;font-family:Yandex Sans Text Light;font-size:1.33333em}
		.st11 {fill:#000000;font-size:1em}
		.st12 {fill:#ff6666;font-size:1em}
		.st13 {font-size:1em}
		.st14 {fill:#f6f5f3;stroke:#000000;stroke-linecap:butt;stroke-opacity:0.098;stroke-width:0.75}
		.st15 {fill:#660033;font-family:Yandex Sans Text Light;font-size:1.33333em}
		.st16 {fill:#002060;font-size:1em}
		.st17 {fill:#000000;fill-opacity:0.047;stroke:#000000;stroke-linecap:butt;stroke-opacity:0.2;stroke-width:0.75}
		.st18 {fill:none;stroke:#ffffff;stroke-linecap:butt;stroke-width:0.75}
		.st19 {fill:none;fill-rule:evenodd;font-size:12px;overflow:visible;stroke-linecap:square;stroke-miterlimit:3}
	]]>
	</style>

	<defs id="Patterns_And_Gradients">
		<linearGradient id="grad0-11" x1="0" y1="0" x2="1" y2="0" gradientTransform="rotate(270 0.5 0.5)">
			<stop offset="0" stop-color="#f2f2f2" stop-opacity="1"/>
			<stop offset="1" stop-color="#ffffff" stop-opacity="1"/>
		</linearGradient>
		<linearGradient id="grad0-140" x1="0" y1="0" x2="1" y2="0" gradientTransform="rotate(270 0.5 0.5)">
			<stop offset="0" stop-color="#1e1e1e" stop-opacity="1"/>
			<stop offset="1" stop-color="#000000" stop-opacity="1"/>
		</linearGradient>
	</defs>
	<defs id="Markers">
		<g id="lend13">
			<path d="M 3 1 L 0 0 L 3 -1 L 3 1 " style="stroke:none"/>
		</g>
		<marker id="mrkr13-6" class="st3" refX="-8.04" orient="auto" markerUnits="strokeWidth" overflow="visible">
			<use xlink:href="#lend13" transform="scale(-2.68,-2.68) "/>
		</marker>
		<g id="lend3">
			<path d="M 2 1 L 0 0 L 2 -1 " style="stroke-linecap:round;stroke-linejoin:round;fill:none"/>
		</g>
		<marker id="mrkr3-143" class="st9" orient="auto" markerUnits="strokeWidth" overflow="visible">
			<use xlink:href="#lend3" transform="scale(-2.2,-2.2) "/>
		</marker>
	</defs>
	<g>
		<title>scheme1</title>
		<g id="shape1-1" transform="translate(165.599,-311.811)">
			<title>Горизонтальная линия выноски.540</title>
			<path d="M0 524.41 L134.31 524.41 L0 524.41 Z" class="st1"/>
		</g>
		<g id="shape4-3" transform="translate(23.5276,-283.465)">
			<title>Text (14).543</title>
			<desc>Source files</desc>
			<rect x="0" y="496.063" width="133.228" height="28.3465" class="st2"/>
			<text x="25.49" y="515.04" class="st4">Source files</text>		</g>
		<g id="shape5-8" transform="translate(650.693,297.638) rotate(90)">
			<title>Line.544</title>
			<path d="M0 524.41 L78.8 524.41" class="st5"/>
		</g>
		<g id="shape6-13" transform="translate(97.3701,-221.102)">
			<title>Text (14).543.6</title>
			<desc>blocks/</desc>
			<rect x="0" y="496.063" width="85.0394" height="28.3465" class="st2"/>
			<text x="16.42" y="515.04" class="st6">blocks/</text>		</g>
		<g id="shape7-17" transform="translate(126.283,-215.433)">
			<title>Line.544.7</title>
			<path d="M0 524.41 L14.17 524.41" class="st5"/>
		</g>
		<g id="shape8-21" transform="translate(130.252,-211.181)">
			<title>Text (14).543.8</title>
			<desc>button/</desc>
			<rect x="0" y="515.906" width="85.0394" height="8.50394" class="st2"/>
			<text x="15.01" y="524.96" class="st7">button/</text>		</g>
		<g id="shape9-25" transform="translate(124.583,-194.173)">
			<title>Text (14).543.9</title>
			<desc>input/</desc>
			<rect x="0" y="515.906" width="85.0394" height="8.50394" class="st2"/>
			<text x="20.73" y="524.96" class="st7">input/</text>		</g>
		<g id="shape10-29" transform="translate(121.748,-175.748)">
			<title>Text (14).543.10</title>
			<desc>logo/</desc>
			<rect x="0" y="513.071" width="85.0394" height="11.3386" class="st2"/>
			<text x="23.58" y="523.54" class="st7">logo/</text>		</g>
		<g id="shape11-33" transform="translate(126.283,-198.425)">
			<title>Line.11</title>
			<path d="M0 524.41 L14.17 524.41" class="st5"/>
		</g>
		<g id="shape12-37" transform="translate(126.283,-181.417)">
			<title>Line.12</title>
			<path d="M0 524.41 L14.17 524.41" class="st5"/>
		</g>
		<g id="shape13-41" transform="translate(120.614,-159.307)">
			<title>Text (14).543.13</title>
			<desc>icon/</desc>
			<rect x="0" y="513.071" width="85.0394" height="11.3386" class="st2"/>
			<text x="24.44" y="523.54" class="st6">icon/</text>		</g>
		<g id="shape14-45" transform="translate(117.78,-141.732)">
			<title>Text (14).543.14</title>
			<desc>link/</desc>
			<rect x="0" y="513.071" width="85.0394" height="11.3386" class="st2"/>
			<text x="27.31" y="523.54" class="st6">link/</text>		</g>
		<g id="shape15-49" transform="translate(126.283,-164.409)">
			<title>Line.15</title>
			<path d="M0 524.41 L14.17 524.41" class="st5"/>
		</g>
		<g id="shape16-53" transform="translate(126.283,-147.969)">
			<title>Line.16</title>
			<path d="M0 524.41 L14.17 524.41" class="st5"/>
		</g>
		<g id="shape17-57" transform="translate(34.8661,-249.449)">
			<title>Text (14).17</title>
			<desc>project/</desc>
			<rect x="0" y="496.063" width="85.0394" height="28.3465" class="st2"/>
			<text x="14.14" y="515.04" class="st6">project/</text>		</g>
		<g id="shape18-61" transform="translate(92.2677,-235.276)">
			<title>Line.544.18</title>
			<path d="M0 524.41 L19.84 524.41" class="st5"/>
		</g>
		<g id="shape19-65" transform="translate(616.677,277.795) rotate(90)">
			<title>Line.544.19</title>
			<path d="M0 524.41 L11.34 524.41" class="st5"/>
		</g>
		<g id="shape20-69" transform="translate(92.126,-127.559)">
			<title>Line.20</title>
			<path d="M0 524.41 L19.84 524.41" class="st5"/>
		</g>
		<g id="shape21-73" transform="translate(616.535,386.079) rotate(90)">
			<title>Line.21</title>
			<path d="M0 524.41 L11.34 524.41" class="st5"/>
		</g>
		<g id="shape22-77" transform="translate(83.0551,-119.622)">
			<title>Text (14).22</title>
			<desc>lib/</desc>
			<rect x="0" y="513.071" width="85.0394" height="11.3386" class="st2"/>
			<text x="31.05" y="523.54" class="st6">lib/</text>		</g>
		<g id="shape23-81" transform="translate(126.283,-36.8504)">
			<title>Line.23</title>
			<path d="M0 524.41 L14.17 524.41" class="st5"/>
		</g>
		<g id="shape24-85" transform="translate(138.614,-81.4961)">
			<title>Text (14).24</title>
			<desc>input/</desc>
			<rect x="0" y="511.654" width="56.6929" height="12.7559" class="st2"/>
			<text x="6.55" y="522.83" class="st7">input/</text>		</g>
		<g id="shape25-89" transform="translate(114.945,-83.622)">
			<title>Text (14).25</title>
			<rect x="0" y="496.063" width="85.0394" height="28.3465" class="st2"/>
		</g>
		<g id="shape26-92" transform="translate(126.283,-104.882)">
			<title>Line.26</title>
			<path d="M0 524.41 L14.17 524.41" class="st5"/>
		</g>
		<g id="shape27-96" transform="translate(126.283,-87.874)">
			<title>Line.27</title>
			<path d="M0 524.41 L14.17 524.41" class="st5"/>
		</g>
		<g id="shape28-100" transform="translate(137.197,-64.3465)">
			<title>Text (14).28</title>
			<desc>icon/</desc>
			<rect x="0" y="511.654" width="51.874" height="12.7559" class="st2"/>
			<text x="7.86" y="522.83" class="st6">icon/</text>		</g>
		<g id="shape29-104" transform="translate(137.197,-30.3307)">
			<title>Text (14).29</title>
			<desc>langswitch/</desc>
			<rect x="0" y="511.654" width="98.9291" height="12.7559" class="st2"/>
			<text x="7.95" y="522.83" class="st7">langswitch/</text>		</g>
		<g id="shape30-108" transform="translate(126.283,-19.8425)">
			<title>Line.30</title>
			<path d="M0 524.41 L14.17 524.41" class="st5"/>
		</g>
		<g id="shape31-112" transform="translate(126.283,-70.8661)">
			<title>Line.31</title>
			<path d="M0 524.41 L14.17 524.41" class="st5"/>
		</g>
		<g id="shape32-116" transform="translate(130.252,-98.9291)">
			<title>Text (14).32</title>
			<desc>button/</desc>
			<rect x="0" y="512.787" width="85.0394" height="11.622" class="st2"/>
			<text x="15.01" y="523.4" class="st7">button/</text>		</g>
		<g id="shape33-120" transform="translate(650.693,408.189) rotate(90)">
			<title>Line.33</title>
			<path d="M0 524.41 L96.38 524.41" class="st5"/>
		</g>
		<g id="shape34-124" transform="translate(133.654,-48.189)">
			<title>Text (14).543.34</title>
			<desc>image/</desc>
			<rect x="0" y="512.787" width="73.7008" height="11.622" class="st2"/>
			<text x="11.48" y="523.4" class="st6">image/</text>		</g>
		<g id="shape35-128" transform="translate(129.543,-13.0394)">
			<title>Text (14).543.35</title>
			<desc>popup/</desc>
			<rect x="0" y="510.236" width="85.0394" height="14.1732" class="st2"/>
			<text x="15.57" y="522.12" class="st6">popup/</text>		</g>
		<g id="shape36-132" transform="translate(126.283,-53.8583)">
			<title>Line.36</title>
			<path d="M0 524.41 L14.17 524.41" class="st5"/>
		</g>
		<g id="shape37-136" transform="translate(234.709,-215.433)">
			<title>Basic Arrow 1.545</title>
			<path d="M0 524.41 L51.02 524.41" class="st8"/>
		</g>
		<g id="shape38-144" transform="translate(234.709,-198.425)">
			<title>Basic Arrow 1.38</title>
			<path d="M0 524.41 L51.02 524.41" class="st8"/>
		</g>
		<g id="shape39-150" transform="translate(234.709,-181.417)">
			<title>Basic Arrow 1.39</title>
			<path d="M0 524.41 L51.02 524.41" class="st8"/>
		</g>
		<g id="shape40-156" transform="translate(234.709,-104.882)">
			<title>Basic Arrow 1.40</title>
			<path d="M0 524.41 L51.02 524.41" class="st8"/>
		</g>
		<g id="shape41-162" transform="translate(234.709,-87.874)">
			<title>Basic Arrow 1.41</title>
			<path d="M0 524.41 L51.02 524.41" class="st8"/>
		</g>
		<g id="shape42-168" transform="translate(234.709,-36.8504)">
			<title>Basic Arrow 1.42</title>
			<path d="M0 524.41 L51.02 524.41" class="st8"/>
		</g>
		<g id="shape44-174" transform="translate(289.984,-481.89)">
			<title>Text Bold (14).546</title>
			<desc>Declaration</desc>
			<rect x="0" y="496.063" width="96.378" height="28.3465" class="st2"/>
			<text x="7.17" y="515.04" class="st4">Declaration</text>		</g>
		<g id="shape95-178" transform="translate(233.291,-425.197)">
			<title>Text (14).543.95</title>
			<desc>exports.blocks = [</desc>
			<rect x="0" y="496.063" width="148.535" height="28.3465" class="st2"/>
			<text x="12" y="515.04" class="st10">exports.blocks<tspan class="st11"> </tspan><tspan class="st11">= [</tspan></text>		</g>
		<g id="shape96-184" transform="translate(263.697,-366.042)">
			<title>Text (14).543.96</title>
			<desc>{ “name”: “button” }, { “name”: “logo” }, { “name”: “input” }...</desc>
			<rect x="0" y="479.428" width="180.776" height="44.9814" class="st2"/>
			<text x="4" y="477.92" class="st6">{ <tspan class="st12">“name”</tspan>: <tspan class="st12">“button”</tspan> }, <tspan
						x="4" dy="1.2em" class="st13">{ </tspan><tspan class="st12">“name”</tspan>: <tspan class="st12">“logo”</tspan> }, <tspan
						x="4" dy="1.2em" class="st13">{ </tspan><tspan class="st12">“name”</tspan>: <tspan class="st12">“input”</tspan> }, <tspan
						x="4" dy="1.2em" class="st13">{ </tspan><tspan class="st12">“name”</tspan>: <tspan class="st12">“langswitch”</tspan> }</text>		</g>
		<g id="shape113-199" transform="translate(233.291,-325.984)">
			<title>Text (14).543.113</title>
			<desc>];</desc>
			<rect x="0" y="496.063" width="34.0157" height="28.3465" class="st2"/>
			<text x="12.4" y="515.04" class="st6">];</text>		</g>
		<g id="shape122-203" transform="translate(864,212.598) rotate(90)">
			<title>Basic Arrow 1.122</title>
			<path d="M0 524.41 L42.52 524.41" class="st8"/>
		</g>
		<g id="shape125-209" transform="translate(399.118,-134.646)">
			<title>Basic Arrow 1.125</title>
			<path d="M0 524.41 L51.02 524.41" class="st8"/>
		</g>
		<g id="shape126-215" transform="translate(559.276,-283.465)">
			<title>Text (14).126</title>
			<desc>project.css</desc>
			<rect x="0" y="496.063" width="133.228" height="28.3465" class="st2"/>
			<text x="27.51" y="515.04" class="st4">project.css</text>		</g>
		<g id="shape128-219" transform="translate(467.15,-42.5197)">
			<title>Rectangle-25</title>
			<rect x="0" y="325.984" width="340.157" height="198.425" class="st14"/>
		</g>
		<g id="shape129-221" transform="translate(488.409,-127.559)">
			<title>Text (14).129</title>
			<desc>@import “lib/button/button.css”; @import “blocks/button/butto...</desc>
			<rect x="0" y="496.063" width="325.984" height="28.3465" class="st2"/>
			<text x="4" y="438.24" class="st15">@import<tspan class="st11">  </tspan><tspan class="st16">“lib</tspan><tspan
						class="st16">/</tspan><tspan class="st16">button</tspan><tspan class="st16">/</tspan><tspan class="st16">button</tspan><tspan
						class="st16">.</tspan><tspan class="st16">css”</tspan><tspan class="st11">; </tspan><tspan x="4" dy="1.2em"
						class="st13">@</tspan>import<tspan class="st11">  </tspan><tspan class="st16">“blocks</tspan><tspan
						class="st16">/</tspan><tspan class="st16">button</tspan><tspan class="st16">/</tspan><tspan class="st16">button</tspan><tspan
						class="st16">.</tspan><tspan class="st16">css”</tspan><tspan class="st11">;  </tspan><tspan x="4"
						dy="2.4em" class="st13">@</tspan>import<tspan class="st11">  </tspan><tspan class="st16">“lib</tspan><tspan
						class="st16">/</tspan><tspan class="st16">input</tspan><tspan class="st16">/</tspan><tspan class="st16">input</tspan><tspan
						class="st16">.</tspan><tspan class="st16">css”</tspan><tspan class="st11">; </tspan><tspan x="4" dy="1.2em"
						class="st13">@</tspan>import<tspan class="st11">  </tspan><tspan class="st16">“blocks</tspan><tspan
						class="st16">/</tspan><tspan class="st16">input</tspan><tspan class="st16">/</tspan><tspan class="st16">input</tspan><tspan
						class="st16">.</tspan><tspan class="st16">css”</tspan><tspan class="st11">;  </tspan><tspan x="4"
						dy="2.4em" class="st13">@</tspan>import<tspan class="st11"> </tspan><tspan class="st16"> </tspan><tspan
						class="st16">“lib</tspan><tspan class="st16">/</tspan><tspan class="st16">langswitch</tspan><tspan
						class="st16">/</tspan><tspan class="st16">langswitch</tspan><tspan class="st16">.</tspan><tspan
						class="st16">css”</tspan><tspan class="st11">;  </tspan><tspan x="4" dy="2.4em" class="st13">@</tspan>import<tspan
						class="st11">  </tspan><tspan class="st16">“blocks</tspan><tspan class="st16">/</tspan><tspan class="st16">logo</tspan><tspan
						class="st16">/</tspan><tspan class="st16">logo</tspan><tspan class="st16">.</tspan><tspan class="st16">css”</tspan><tspan
						class="st11">;</tspan></text>		</g>
		<g id="group130-285" transform="translate(297.071,-14.1732)">
			<title>Rectangle-22</title>
			<g id="shape131-286">
				<title>path-3</title>
				<path d="M0 521.27 A2.55124 3.14283 -180 0 0 2.55 524.41 L82.49 524.41 A2.55124 3.14283 -180 0 0 85.04 521.27 L85.04
							 286.61 A2.55124 3.14283 -180 0 0 82.49 283.46 L2.55 283.46 A2.55124 3.14283 -180 0 0 -0 286.61 L0 521.27
							 Z" class="st17"/>
			</g>
			<g id="shape132-288">
				<title>Sheet.132</title>
				<path d="M0 521.27 A2.55124 3.14283 -180 0 0 2.55 524.41 L82.49 524.41 A2.55124 3.14283 -180 0 0 85.04 521.27 L85.04
							 286.61 A2.55124 3.14283 -180 0 0 82.49 283.46 L2.55 283.46 A2.55124 3.14283 -180 0 0 -0 286.61 L0 521.27
							 Z" class="st18"/>
			</g>
		</g>
		<g id="shape133-290" transform="translate(297.071,-120.472)">
			<title>Text Bold (14).546.133</title>
			<desc>Build</desc>
			<rect x="0" y="496.063" width="85.0394" height="28.3465" class="st2"/>
			<text x="24.58" y="515.04" class="st4">Build</text>		</g>
	</g>
</svg>
