<?xml version="1.0" encoding="UTF-8" standalone="no"?>
<!DOCTYPE svg PUBLIC "-//W3C//DTD SVG 1.1//EN" "http://www.w3.org/Graphics/SVG/1.1/DTD/svg11.dtd">
<!-- Generated by Microsoft Visio, SVG Export build__search-form.svg new-page -->
<svg xmlns="http://www.w3.org/2000/svg" xmlns:xlink="http://www.w3.org/1999/xlink" xmlns:ev="http://www.w3.org/2001/xml-events"
		width="539" height="317" viewBox="0 0 538.893 317.136" xml:space="preserve" color-interpolation-filters="sRGB"
		class="st12">
	<style type="text/css">
	<![CDATA[
		.st1 {fill:none;marker-end:url(#mrkr13-4);stroke:none;stroke-linecap:butt;stroke-width:1.5}
		.st2 {fill:#ffcc00;fill-opacity:1;stroke:#ffcc00;stroke-opacity:1;stroke-width:0.37313432835821}
		.st3 {fill:#000000;font-family:Yandex Sans Text Light;font-size:1.33333em;font-weight:bold}
		.st4 {font-family:Malgun Gothic;font-size:1em}
		.st5 {fill:#ffffff;stroke:#bfbfbf;stroke-linecap:butt;stroke-width:0.75}
		.st6 {fill:#ffdb4d;stroke:none;stroke-linecap:butt;stroke-width:0.75}
		.st7 {fill:none;stroke:none;stroke-linecap:butt;stroke-width:0.75}
		.st8 {fill:#000000;font-family:Arial;font-size:1.33333em}
		.st9 {fill:none;stroke:#bfbfbf;stroke-linecap:butt;stroke-width:0.75}
		.st10 {marker-end:url(#mrkr3-57);stroke:#000000;stroke-linecap:butt;stroke-width:1.5}
		.st11 {fill:#000000;fill-opacity:1;stroke:#000000;stroke-opacity:1;stroke-width:0.45454545454545}
		.st12 {fill:none;fill-rule:evenodd;font-size:12px;overflow:visible;stroke-linecap:square;stroke-miterlimit:3}
	]]>
	</style>

	<defs id="Patterns_And_Gradients">
		<linearGradient id="grad0-54" x1="0" y1="0" x2="1" y2="0" gradientTransform="rotate(270 0.5 0.5)">
			<stop offset="0" stop-color="#f2f2f2" stop-opacity="1"/>
			<stop offset="1" stop-color="#ffffff" stop-opacity="1"/>
		</linearGradient>
	</defs>
	<defs id="Markers">
		<g id="lend13">
			<path d="M 3 1 L 0 0 L 3 -1 L 3 1 " style="stroke:none"/>
		</g>
		<marker id="mrkr13-4" class="st2" refX="-8.04" orient="auto" markerUnits="strokeWidth" overflow="visible">
			<use xlink:href="#lend13" transform="scale(-2.68,-2.68) "/>
		</marker>
		<g id="lend3">
			<path d="M 2 1 L 0 0 L 2 -1 " style="stroke-linecap:round;stroke-linejoin:round;fill:none"/>
		</g>
		<marker id="mrkr3-57" class="st11" orient="auto" markerUnits="strokeWidth" overflow="visible">
			<use xlink:href="#lend3" transform="scale(-2.2,-2.2) "/>
		</marker>
	</defs>
	<g>
		<title>scheme1</title>
		<g id="shape4-1" transform="translate(42.9017,-255.118)">
			<title>Text (14).543</title>
			<desc>block &#34;search-form&#34;</desc>
			<rect x="0" y="288.789" width="156.374" height="28.3465" class="st1"/>
			<text x="5.37" y="307.8" class="st3">block <tspan class="st4">&#34;</tspan>search-form<tspan class="st4">&#34;</tspan></text>		</g>
		<g id="group100-8" transform="translate(311.024,-34.0157)">
			<title>iPhone.565</title>
		</g>
		<g id="group145-9" transform="translate(384.263,-286.1)">
			<title>Search</title>
		</g>
		<g id="group152-10" transform="translate(49.6063,-212.866)">
			<title>Sheet.152</title>
			<g id="shape153-11">
				<title>f</title>
				<path d="M-0 314.5 A2.63633 2.63249 -180 0 0 2.64 317.14 L432.2 317.14 A2.63633 2.63249 -180 0 0 434.83 314.5 L434.83
							 291.69 A2.63633 2.63249 -180 0 0 432.2 289.06 L2.64 289.06 A2.63633 2.63249 -180 0 0 0 291.69 L0 314.5
							 Z" class="st5"/>
			</g>
			<g id="shape154-13" transform="translate(-0.0664501,0)">
				<title>Sheet.154</title>
				<path d="M-0 314.5 A2.63633 2.63249 -180 0 0 2.64 317.14 L432.2 317.14 A2.63633 2.63249 -180 0 0 434.83 314.5 L434.83
							 291.69 A2.63633 2.63249 -180 0 0 432.2 289.06 L2.64 289.06 A2.63633 2.63249 -180 0 0 0 291.69 L0 314.5
							 Z" class="st5"/>
			</g>
		</g>
		<g id="shape158-15" transform="translate(420.686,-212.866)">
			<title>Sheet.158</title>
			<rect x="0" y="289.057" width="63.7553" height="28.0793" class="st6"/>
		</g>
		<g id="group159-17" transform="translate(415.276,-28.48)">
			<title>Sheet.159</title>
			<g id="shape160-18">
				<title>c</title>
				<path d="M0 314.13 A3.00856 3.00856 -180 0 0 3.01 317.14 L66.19 317.14 A3.00856 3.00856 -180 0 0 69.2 314.13 L69.2
							 292.07 A3.00856 3.00856 -180 0 0 66.19 289.06 L3.01 289.06 A3.00856 3.00856 -180 0 0 0 292.07 L0 314.13
							 Z" class="st5"/>
			</g>
			<g id="shape161-20">
				<title>Sheet.161</title>
				<path d="M0 314.13 A3.00856 3.00856 -180 0 0 3.01 317.14 L66.19 317.14 A3.00856 3.00856 -180 0 0 69.2 314.13 L69.2
							 292.07 A3.00856 3.00856 -180 0 0 66.19 289.06 L3.01 289.06 A3.00856 3.00856 -180 0 0 0 292.07 L0 314.13
							 Z" class="st5"/>
			</g>
		</g>
		<g id="shape162-22" transform="translate(428.321,-36.5361)">
			<title>Sheet.162</title>
			<desc>Button</desc>
			<rect x="0" y="305.436" width="48.75" height="11.7" class="st7"/>
			<text x="0" y="316.09" class="st8">Button</text>		</g>
		<g id="group164-25" transform="translate(49.6063,-212.866)">
			<title>Sheet.164</title>
			<g id="shape165-26">
				<title>f</title>
				<path d="M-0 314.5 A2.63633 2.63249 -180 0 0 2.64 317.14 L432.2 317.14 A2.63633 2.63249 -180 0 0 434.83 314.5 L434.83
							 291.69 A2.63633 2.63249 -180 0 0 432.2 289.06 L2.64 289.06 A2.63633 2.63249 -180 0 0 0 291.69 L0 314.5
							 Z" class="st9"/>
			</g>
			<g id="shape166-28" transform="translate(-0.0664501,0)">
				<title>Sheet.166</title>
				<path d="M-0 314.5 A2.63633 2.63249 -180 0 0 2.64 317.14 L432.2 317.14 A2.63633 2.63249 -180 0 0 434.83 314.5 L434.83
							 291.69 A2.63633 2.63249 -180 0 0 432.2 289.06 L2.64 289.06 A2.63633 2.63249 -180 0 0 0 291.69 L0 314.5
							 Z" class="st9"/>
			</g>
		</g>
		<g id="group167-30" transform="translate(49.4379,-28.3465)">
			<title>Sheet.167</title>
			<g id="shape168-31">
				<title>f</title>
				<path d="M0 314.5 A1.73236 2.63249 -180 0 0 1.73 317.14 L284 317.14 A1.73236 2.63249 -180 0 0 285.73 314.5 L285.73
							 291.69 A1.73236 2.63249 -180 0 0 284 289.06 L1.73 289.06 A1.73236 2.63249 -180 0 0 -0 291.69 L0 314.5
							 Z" class="st5"/>
			</g>
			<g id="shape169-33" transform="translate(-0.0436649,0)">
				<title>Sheet.169</title>
				<path d="M0 314.5 A1.73236 2.63249 -180 0 0 1.73 317.14 L284 317.14 A1.73236 2.63249 -180 0 0 285.73 314.5 L285.73
							 291.69 A1.73236 2.63249 -180 0 0 284 289.06 L1.73 289.06 A1.73236 2.63249 -180 0 0 -0 291.69 L0 314.5
							 Z" class="st5"/>
			</g>
		</g>
		<g id="shape171-35" transform="translate(428.882,-219.952)">
			<title>Sheet.171</title>
			<desc>Search</desc>
			<rect x="0" y="305.436" width="54.3588" height="11.7" class="st7"/>
			<text x="0" y="316.09" class="st8">Search</text>		</g>
		<g id="shape174-38" transform="translate(41.9528,-69.382)">
			<title>Text (14).174</title>
			<desc>block &#34;input&#34;</desc>
			<rect x="0" y="288.789" width="107.008" height="28.3465" class="st1"/>
			<text x="6.19" y="307.8" class="st3">block <tspan class="st4">&#34;</tspan>input<tspan class="st4">&#34;</tspan></text>		</g>
		<g id="shape175-44" transform="translate(383.016,-70.8661)">
			<title>Text (14).175</title>
			<desc>block &#34;button&#34;</desc>
			<rect x="0" y="288.789" width="134.307" height="28.3465" class="st1"/>
			<text x="14.11" y="307.8" class="st3">block <tspan class="st4">&#34;</tspan>button<tspan class="st4">&#34;</tspan></text>		</g>
		<g id="shape178-50" transform="translate(-226.4,183.908) rotate(-90)">
			<title>Basic Arrow 1.545</title>
			<path d="M0 317.14 L51.02 317.14" class="st10"/>
		</g>
		<g id="shape179-58" transform="translate(133.289,183.908) rotate(-90)">
			<title>Basic Arrow 1.179</title>
			<path d="M0 317.14 L51.02 317.14" class="st10"/>
		</g>
	</g>
</svg>
