<?xml version="1.0" encoding="UTF-8" standalone="no"?>
<!DOCTYPE svg PUBLIC "-//W3C//DTD SVG 1.1//EN" "http://www.w3.org/Graphics/SVG/1.1/DTD/svg11.dtd">
<!-- Generated by Microsoft Visio, SVG Export build__search-form.svg new-page -->
<svg xmlns="http://www.w3.org/2000/svg" xmlns:xlink="http://www.w3.org/1999/xlink" xmlns:ev="http://www.w3.org/2001/xml-events"
		xmlns:v="http://schemas.microsoft.com/visio/2003/SVGExtensions/" width="7.48463in" height="4.40467in"
		viewBox="0 0 538.893 317.136" xml:space="preserve" color-interpolation-filters="sRGB" class="st11">
	<v:documentProperties v:langID="1049" v:metric="true" v:viewMarkup="false">
		<v:userDefs>
			<v:ud v:nameU="msvNoAutoConnect" v:val="VT0(0):26"/>
			<v:ud v:nameU="msvConvertTheme"/>
			<v:ud v:nameU="DocShowPicture" v:prompt="" v:val="VT0(1):26"/>
			<v:ud v:nameU="visTLShowProps" v:prompt="" v:val="VT0(0):26"/>
		</v:userDefs>
	</v:documentProperties>

	<style type="text/css">
	<![CDATA[
		.st1 {fill:none;marker-end:url(#mrkr13-4);stroke:none;stroke-linecap:butt;stroke-width:1.5}
		.st2 {fill:#ffcc00;fill-opacity:1;stroke:#ffcc00;stroke-opacity:1;stroke-width:0.37313432835821}
		.st3 {fill:#000000;font-family:Yandex Sans Text Light;font-size:1.33333em;font-weight:bold}
		.st4 {fill:#ffffff;stroke:#bfbfbf;stroke-linecap:butt;stroke-width:0.75}
		.st5 {fill:#ffdb4d;stroke:none;stroke-linecap:butt;stroke-width:0.75}
		.st6 {fill:none;stroke:none;stroke-linecap:butt;stroke-width:0.75}
		.st7 {fill:#000000;font-family:Arial;font-size:1.33333em}
		.st8 {fill:none;stroke:#bfbfbf;stroke-linecap:butt;stroke-width:0.75}
		.st9 {marker-end:url(#mrkr3-51);stroke:#000000;stroke-linecap:butt;stroke-width:1.5}
		.st10 {fill:#000000;fill-opacity:1;stroke:#000000;stroke-opacity:1;stroke-width:0.45454545454545}
		.st11 {fill:none;fill-rule:evenodd;font-size:12px;overflow:visible;stroke-linecap:square;stroke-miterlimit:3}
	]]>
	</style>

	<defs id="Patterns_And_Gradients">
		<linearGradient id="grad0-48" x1="0" y1="0" x2="1" y2="0" gradientTransform="rotate(270 0.5 0.5)">
			<stop offset="0" stop-color="#f2f2f2" stop-opacity="1"/>
			<stop offset="1" stop-color="#ffffff" stop-opacity="1"/>
		</linearGradient>
	</defs>
	<defs id="Markers">
		<g id="lend13">
			<path d="M 3 1 L 0 0 L 3 -1 L 3 1 " style="stroke:none"/>
		</g>
		<marker id="mrkr13-4" class="st2" v:arrowType="13" v:arrowSize="2" v:setback="8.04" refX="-8.04" orient="auto"
				markerUnits="strokeWidth" overflow="visible">
			<use xlink:href="#lend13" transform="scale(-2.68,-2.68) "/>
		</marker>
		<g id="lend3">
			<path d="M 2 1 L 0 0 L 2 -1 " style="stroke-linecap:round;stroke-linejoin:round;fill:none"/>
		</g>
		<marker id="mrkr3-51" class="st10" v:arrowType="3" v:arrowSize="1" orient="auto" markerUnits="strokeWidth"
				overflow="visible">
			<use xlink:href="#lend3" transform="scale(-2.2,-2.2) "/>
		</marker>
	</defs>
	<g v:mID="4" v:index="2" v:groupContext="foregroundPage">
		<title>scheme1</title>
		<v:pageProperties v:drawingScale="0.0393701" v:pageScale="0.0393701" v:drawingUnits="24" v:shadowOffsetX="8.50394"
				v:shadowOffsetY="-8.50394"/>
		<v:layer v:name="Flowchart" v:index="0"/>
		<v:layer v:name="Connector" v:index="1"/>
		<v:layer v:name="Соединительная линия" v:index="2"/>
		<g id="shape4-1" v:mID="4" v:groupContext="shape" transform="translate(42.9017,-255.118)">
			<title>Text (14).543</title>
			<desc>block “search-form”</desc>
			<v:textBlock v:margins="rect(4,4,4,4)" v:tabSpace="42.5197"/>
			<v:textRect cx="76.1811" cy="302.963" width="152.37" height="28.3465"/>
			<rect x="0" y="288.789" width="152.362" height="28.3465" class="st1"/>
			<text x="4.93" y="307.76" class="st3" v:langID="1033"><v:paragraph v:horizAlign="1"/><v:tabList/>block “search-form”</text>		</g>
		<g id="group100-6" transform="translate(311.024,-34.0157)" v:mID="100" v:groupContext="group">
			<title>iPhone.565</title>
		</g>
		<g id="group145-7" transform="translate(384.263,-286.1)" v:mID="145" v:groupContext="group">
			<title>Search</title>
		</g>
		<g id="group152-8" transform="translate(49.6063,-212.866)" v:mID="152" v:groupContext="group">
			<title>Sheet.152</title>
			<g id="shape153-9" v:mID="153" v:groupContext="shape">
				<title>f</title>
				<path d="M0 314.5 A2.63249 2.63249 -180 0 0 2.63 317.14 L431.57 317.14 A2.63249 2.63249 -180 0 0 434.2 314.5 L434.2
							 291.69 A2.63249 2.63249 -180 0 0 431.57 289.06 L2.63 289.06 A2.63249 2.63249 -180 0 0 -0 291.69 L0 314.5
							 Z" class="st4"/>
			</g>
			<g id="shape154-11" v:mID="154" v:groupContext="shape" transform="translate(-0.0663533,0)">
				<title>Sheet.154</title>
				<path d="M0 314.5 A2.63249 2.63249 -180 0 0 2.63 317.14 L431.57 317.14 A2.63249 2.63249 -180 0 0 434.2 314.5 L434.2
							 291.69 A2.63249 2.63249 -180 0 0 431.57 289.06 L2.63 289.06 A2.63249 2.63249 -180 0 0 -0 291.69 L0 314.5
							 Z" class="st4"/>
			</g>
		</g>
		<g id="shape158-13" v:mID="158" v:groupContext="shape" transform="translate(420.945,-212.866)">
			<title>Sheet.158</title>
			<rect x="0" y="289.057" width="63.7553" height="28.0793" class="st5"/>
		</g>
		<g id="group159-15" transform="translate(418.915,-28.48)" v:mID="159" v:groupContext="group">
			<title>Sheet.159</title>
			<g id="shape160-16" v:mID="160" v:groupContext="shape">
				<title>c</title>
				<path d="M0 314.13 A3.00856 3.00856 -180 0 0 3.01 317.14 L66.19 317.14 A3.00856 3.00856 -180 0 0 69.2 314.13 L69.2
							 292.07 A3.00856 3.00856 -180 0 0 66.19 289.06 L3.01 289.06 A3.00856 3.00856 -180 0 0 0 292.07 L0 314.13
							 Z" class="st4"/>
			</g>
			<g id="shape161-18" v:mID="161" v:groupContext="shape">
				<title>Sheet.161</title>
				<path d="M0 314.13 A3.00856 3.00856 -180 0 0 3.01 317.14 L66.19 317.14 A3.00856 3.00856 -180 0 0 69.2 314.13 L69.2
							 292.07 A3.00856 3.00856 -180 0 0 66.19 289.06 L3.01 289.06 A3.00856 3.00856 -180 0 0 0 292.07 L0 314.13
							 Z" class="st4"/>
			</g>
		</g>
		<g id="shape162-20" v:mID="162" v:groupContext="shape" transform="translate(428.447,-36.5361)">
			<title>Sheet.162</title>
			<desc>Кнопка</desc>
			<v:textBlock v:margins="rect(0,0,0,0)" v:tabSpace="42.5197"/>
			<v:textRect cx="29.25" cy="311.286" width="58.51" height="11.7"/>
			<rect x="0" y="305.436" width="58.5" height="11.7" class="st6"/>
			<text x="0" y="316.09" class="st7" v:langID="1049"><v:paragraph/><v:tabList/>Кнопка</text>		</g>
		<g id="group164-23" transform="translate(49.6063,-212.866)" v:mID="164" v:groupContext="group">
			<title>Sheet.164</title>
			<g id="shape165-24" v:mID="165" v:groupContext="shape">
				<title>f</title>
				<path d="M0 314.5 A2.63249 2.63249 -180 0 0 2.63 317.14 L431.57 317.14 A2.63249 2.63249 -180 0 0 434.2 314.5 L434.2
							 291.69 A2.63249 2.63249 -180 0 0 431.57 289.06 L2.63 289.06 A2.63249 2.63249 -180 0 0 -0 291.69 L0 314.5
							 Z" class="st8"/>
			</g>
			<g id="shape166-26" v:mID="166" v:groupContext="shape" transform="translate(-0.0663533,0)">
				<title>Sheet.166</title>
				<path d="M0 314.5 A2.63249 2.63249 -180 0 0 2.63 317.14 L431.57 317.14 A2.63249 2.63249 -180 0 0 434.2 314.5 L434.2
							 291.69 A2.63249 2.63249 -180 0 0 431.57 289.06 L2.63 289.06 A2.63249 2.63249 -180 0 0 -0 291.69 L0 314.5
							 Z" class="st8"/>
			</g>
		</g>
		<g id="group167-28" transform="translate(49.4379,-28.3465)" v:mID="167" v:groupContext="group">
			<title>Sheet.167</title>
			<g id="shape168-29" v:mID="168" v:groupContext="shape">
				<title>f</title>
				<path d="M0 314.5 A1.73236 2.63249 -180 0 0 1.73 317.14 L284 317.14 A1.73236 2.63249 -180 0 0 285.73 314.5 L285.73
							 291.69 A1.73236 2.63249 -180 0 0 284 289.06 L1.73 289.06 A1.73236 2.63249 -180 0 0 -0 291.69 L0 314.5
							 Z" class="st4"/>
			</g>
			<g id="shape169-31" v:mID="169" v:groupContext="shape" transform="translate(-0.0436649,0)">
				<title>Sheet.169</title>
				<path d="M0 314.5 A1.73236 2.63249 -180 0 0 1.73 317.14 L284 317.14 A1.73236 2.63249 -180 0 0 285.73 314.5 L285.73
							 291.69 A1.73236 2.63249 -180 0 0 284 289.06 L1.73 289.06 A1.73236 2.63249 -180 0 0 -0 291.69 L0 314.5
							 Z" class="st4"/>
			</g>
		</g>
		<g id="shape171-33" v:mID="171" v:groupContext="shape" transform="translate(429.449,-219.952)">
			<title>Sheet.171</title>
			<desc>Найти</desc>
			<v:textBlock v:margins="rect(0,0,0,0)" v:tabSpace="42.5197"/>
			<v:textRect cx="24.375" cy="311.286" width="48.75" height="11.7"/>
			<rect x="0" y="305.436" width="48.75" height="11.7" class="st6"/>
			<text x="0" y="316.09" class="st7" v:langID="1049"><v:paragraph/><v:tabList/>Найти</text>		</g>
		<g id="shape174-36" v:mID="174" v:groupContext="shape" transform="translate(40.4213,-69.382)">
			<title>Text (14).174</title>
			<desc>block “input”</desc>
			<v:textBlock v:margins="rect(4,4,4,4)" v:tabSpace="42.5197"/>
			<v:textRect cx="53.5039" cy="302.963" width="107.01" height="28.3465"/>
			<rect x="0" y="288.789" width="107.008" height="28.3465" class="st1"/>
			<text x="7.76" y="307.76" class="st3" v:langID="1033"><v:paragraph v:horizAlign="1"/><v:tabList/>block “input”</text>		</g>
		<g id="shape175-40" v:mID="175" v:groupContext="shape" transform="translate(383.583,-70.8661)">
			<title>Text (14).175</title>
			<desc>block “button”</desc>
			<v:textBlock v:margins="rect(4,4,4,4)" v:tabSpace="42.5197"/>
			<v:textRect cx="67.1535" cy="302.963" width="134.31" height="28.3465"/>
			<rect x="0" y="288.789" width="134.307" height="28.3465" class="st1"/>
			<text x="15.68" y="307.76" class="st3" v:langID="1033"><v:paragraph v:horizAlign="1"/><v:tabList/>block “button”</text>		</g>
		<g id="shape178-44" v:mID="178" v:groupContext="shape" transform="translate(-226.4,183.908) rotate(-90)">
			<title>Basic Arrow 1.545</title>
			<path d="M0 317.14 L51.02 317.14" class="st9"/>
		</g>
		<g id="shape179-52" v:mID="179" v:groupContext="shape" transform="translate(134.734,183.908) rotate(-90)">
			<title>Basic Arrow 1.179</title>
			<path d="M0 317.14 L51.02 317.14" class="st9"/>
		</g>
	</g>
</svg>
